#!OML:ASF F:\VICON\USERDATA\INSTALL\rory3\rory3.ASF
:FULLY-SPECIFIED
:DEGREES
2000
root 0.517216 14.8962 -1.68213 -3.19183 -0.78607 4.04858
lowerback 22.2732 -0.756978 2.37219
upperback 6.30172 -0.156171 4.31444
thorax -5.52734 -0.0963424 3.35562
lowerneck -9.43058 -5.46535 -9.31818
upperneck -9.21152 -5.8723 15.5706
head -0.337445 -2.7754 6.10598
rclavicle 1.51076e-014 -6.04305e-014
rhumerus 10.3119 2.51658 -58.6753
rradius 87.7826
rwrist 17.6386
rhand 28.0578 9.51666
rfingers 7.12502
rthumb 51.9526 -10.6171
lclavicle 1.51076e-014 -6.04305e-014
lhumerus 12.2018 -20.3078 67.2426
lradius 90.6539
lwrist 5.95473
lhand 6.2958 32.4834
lfingers 7.12502
lthumb 31.6051 59.7677
rfemur -25.3427 0.639802 10.342
rtibia 54.4592
rfoot -21.0078 -5.88328
rtoes -18.7125
lfemur -22.6041 3.25387 -22.1974
ltibia 49.0358
lfoot -17.4303 -1.06763
ltoes -12.1471
2001
root 0.507802 14.8981 -1.65474 -3.44726 -0.630559 4.072
lowerback 21.9355 -0.727645 2.39114
upperback 6.14938 -0.119092 4.37077
thorax -5.52135 -0.0775656 3.39117
lowerneck -9.55424 -5.31622 -9.19789
upperneck -9.32731 -5.66189 15.4378
head -0.387531 -2.66959 6.05496
rclavicle 5.56597e-015 -3.33958e-014
rhumerus 10.3797 2.73466 -58.151
rradius 87.7438
rwrist 17.5698
rhand 28.1552 9.74509
rfingers 7.12502
rthumb 52.041 -10.3362
lclavicle 5.56597e-015 -3.33958e-014
lhumerus 12.1556 -20.0824 67.1632
lradius 90.6932
lwrist 5.61676
lhand 6.75826 32.5109
lfingers 7.12502
lthumb 32.0456 59.7077
rfemur -24.8606 0.623193 10.3607
rtibia 54.4331
rfoot -21.1298 -5.97274
rtoes -18.3691
lfemur -22.1205 3.22341 -22.1657
ltibia 48.882
lfoot -17.5213 -1.19587
ltoes -12.0642
2002
root 0.500536 14.8992 -1.62866 -3.65484 -0.463351 4.26148
lowerback 21.5465 -0.688667 2.29709
upperback 5.99953 -0.101147 4.35952
thorax -5.48473 -0.0673962 3.42162
lowerneck -9.83906 -5.18245 -9.11248
upperneck -9.24227 -5.47697 15.366
head -0.346082 -2.56506 6.02019
rclavicle 3.18055e-014 4.13472e-014
rhumerus 10.472 2.80948 -57.7779
rradius 87.73
rwrist 17.5612
rhand 28.2231 9.80516
rfingers 7.12502
rthumb 52.1026 -10.2394
lclavicle 3.18055e-014 4.13472e-014
lhumerus 12.1992 -19.8925 67.1483
lradius 90.738
lwrist 5.54189
lhand 6.92878 32.683
lfingers 7.12502
lthumb 32.2079 59.847
rfemur -24.4468 0.576255 10.17
rtibia 54.3922
rfoot -21.2646 -5.96747
rtoes -17.7887
lfemur -21.7153 3.18775 -22.3351
ltibia 48.7861
lfoot -17.7001 -1.26447
ltoes -11.9229
2003
root 0.492439 14.8993 -1.60459 -3.79357 -0.286745 4.31716
lowerback 21.1609 -0.684899 2.29851
upperback 5.79009 -0.100025 4.42119
thorax -5.5126 -0.0657211 3.48252
lowerneck -10.0208 -5.05191 -9.10101
upperneck -9.13274 -5.30142 15.2468
head -0.312746 -2.46636 5.98437
rclavicle -1.59028e-015 6.36111e-015
rhumerus 10.5474 2.85163 -57.4854
rradius 87.7065
rwrist 17.538
rhand 28.2641 9.86664
rfingers 7.12502
rthumb 52.1397 -10.1556
lclavicle -1.59028e-015 6.36111e-015
lhumerus 12.1058 -19.5244 67.3878
lradius 90.7381
lwrist 5.78747
lhand 7.03636 32.9133
lfingers 7.12502
lthumb 32.3103 60.0565
rfemur -24.0933 0.543556 10.1413
rtibia 54.3337
rfoot -21.3994 -6.0787
rtoes -17.5782
lfemur -21.4435 3.16082 -22.3682
ltibia 48.7598
lfoot -17.8723 -1.25091
ltoes -12.3578
2004
root 0.482276 14.9013 -1.58126 -3.90045 -0.125417 3.85598
lowerback 20.7882 -0.749721 2.80984
upperback 5.54351 -0.0719775 4.60354
thorax -5.58717 -0.0544202 3.37731
lowerneck -10.1191 -4.92994 -9.12383
upperneck -9.00131 -5.13935 15.2071
head -0.279695 -2.37657 5.97971
rclavicle -6.36111e-015 -4.92986e-014
rhumerus 10.5282 2.80313 -57.3284
rradius 87.7069
rwrist 17.4808
rhand 28.2509 9.838
rfingers 7.12502
rthumb 52.1277 -10.1915
lclavicle -6.36111e-015 -4.92986e-014
lhumerus 11.8913 -19.3714 67.3934
lradius 90.7645
lwrist 6.36459
lhand 6.73769 33.0659
lfingers 7.12502
lthumb 32.026 60.2667
rfemur -23.7623 0.605381 10.7255
rtibia 54.2504
rfoot -21.4854 -6.3644
rtoes -17.554
lfemur -21.2767 3.21066 -21.8011
ltibia 48.769
lfoot -17.9288 -1.36416
ltoes -12.9979
2005
root 0.472892 14.9023 -1.55824 -4.04157 0.015154 3.53364
lowerback 20.4678 -0.78874 3.22036
upperback 5.28045 -0.0339023 4.72207
thorax -5.70601 -0.0385353 3.2599
lowerneck -10.2756 -4.8134 -9.14285
upperneck -8.72579 -4.99464 15.1868
head -0.19264 -2.29019 5.97609
rclavicle 1.43125e-014 -2.06736e-014
rhumerus 10.4256 2.6789 -57.2772
rradius 87.7479
rwrist 17.4811
rhand 28.3081 9.70251
rfingers 7.12502
rthumb 52.1796 -10.2958
lclavicle 1.43125e-014 -2.06736e-014
lhumerus 11.6115 -19.3628 67.2567
lradius 90.953
lwrist 6.47828
lhand 7.05482 33.6193
lfingers 7.12502
lthumb 32.3279 60.759
rfemur -23.4121 0.685889 11.1513
rtibia 54.1687
rfoot -21.5608 -6.5813
rtoes -17.3698
lfemur -21.0424 3.25064 -21.3839
ltibia 48.7489
lfoot -17.9757 -1.52678
ltoes -12.9481
2006
root 0.465931 14.9044 -1.53086 -4.24088 0.127644 3.81278
lowerback 20.12 -0.750603 3.06052
upperback 5.04794 -0.028217 4.67028
thorax -5.77601 -0.0339449 3.28989
lowerneck -10.4344 -4.682 -9.13761
upperneck -8.36781 -4.8423 15.1008
head -0.085806 -2.19886 5.94706
rclavicle -7.95139e-015 -2.06736e-014
rhumerus 10.321 2.49698 -57.2896
rradius 87.8257
rwrist 17.6233
rhand 28.5411 9.71377
rfingers 7.12502
rthumb 52.3906 -10.1569
lclavicle -7.95139e-015 -2.06736e-014
lhumerus 11.4287 -19.1387 67.2089
lradius 90.9126
lwrist 6.2461
lhand 7.81984 33.2205
lfingers 7.12502
lthumb 33.0557 60.209
rfemur -22.9997 0.667101 10.8655
rtibia 54.111
rfoot -21.6834 -6.65256
rtoes -17.3455
lfemur -20.6357 3.22875 -21.6622
ltibia 48.6582
lfoot -18.1427 -1.54354
ltoes -12.9411
